<?xml version="1.0" encoding="UTF-8"?>
<svg width="48px" height="48px" viewBox="0 0 48 48" version="1.1" xmlns="http://www.w3.org/2000/svg" xmlns:xlink="http://www.w3.org/1999/xlink">
    <title>Instagram-black</title>
    <g id="Symbols" stroke="none" stroke-width="1" fill="none" fill-rule="evenodd">
        <g id="Instagram" fill="#4C4C4C">
            <path d="M25.8597552,0.000968902378 C30.7071885,0.00672335122 31.6019657,0.0397943002 33.8951693,0.144426516 C36.4496895,0.260939463 38.1943351,0.666686514 39.720912,1.26001655 C41.2991241,1.87325763 42.6375464,2.69389748 43.9718721,4.02812792 C45.3061025,5.36245363 46.1267424,6.70087587 46.7400787,8.27908805 C47.3333135,9.80566488 47.7390605,11.5503105 47.8555735,14.1048307 C47.9723722,16.6646859 48,17.4819913 48,24.0000476 C48,30.5180087 47.9723722,31.3353141 47.8555735,33.8951693 C47.7390605,36.4496895 47.3333135,38.1943351 46.7400787,39.720912 C46.1267424,41.2991241 45.3061025,42.6375464 43.9718721,43.9718721 C42.6375464,45.3061025 41.2991241,46.1267424 39.720912,46.7400787 C38.1943351,47.3333135 36.4496895,47.7390605 33.8951693,47.8555735 C31.3353141,47.9723722 30.5180087,48 24.0000476,48 C17.4819913,48 16.6646859,47.9723722 14.1048307,47.8555735 C11.5503105,47.7390605 9.80566488,47.3333135 8.27908805,46.7400787 C6.70087587,46.1267424 5.36245363,45.3061025 4.02812792,43.9718721 C2.69389748,42.6375464 1.87325763,41.2991241 1.26001655,39.720912 C0.666686514,38.1943351 0.260939463,36.4496895 0.144426516,33.8951693 C0.0397943002,31.6019657 0.00672335122,30.7071885 0.000968902378,25.8597552 L0.000968902378,22.1403133 C0.00672335122,17.2928115 0.0397943002,16.3980343 0.144426516,14.1048307 C0.260939463,11.5503105 0.666686514,9.80566488 1.26001655,8.27908805 C1.87325763,6.70087587 2.69389748,5.36245363 4.02812792,4.02812792 C5.36245363,2.69389748 6.70087587,1.87325763 8.27908805,1.26001655 C9.80566488,0.666686514 11.5503105,0.260939463 14.1048307,0.144426516 C16.3980343,0.0397943002 17.2928115,0.00672335122 22.1403133,0.000968902378 Z M25.51801,4.32488961 L22.4820629,4.32488961 C17.4497004,4.32914306 16.6172646,4.35862732 14.3019405,4.46426551 C11.9619642,4.57096584 10.6911823,4.96194633 9.84548697,5.29062145 C8.72522879,5.72599689 7.92573848,6.24606572 7.08594973,7.08594973 C6.24606572,7.92573848 5.72599689,8.72522879 5.29062145,9.84548697 C4.96194633,10.6911823 4.57096584,11.9619642 4.46426551,14.3019405 C4.35862732,16.6172646 4.32914306,17.4497004 4.32488961,22.4820629 L4.32488961,25.51801 C4.32914306,30.5502996 4.35862732,31.3827354 4.46426551,33.6980595 C4.57096584,36.0380358 4.96194633,37.3088177 5.29062145,38.154513 C5.72599689,39.2747712 6.24616099,40.0742615 7.08594973,40.9140503 C7.92573848,41.7539343 8.72522879,42.2740031 9.84548697,42.7093786 C10.6911823,43.0380537 11.9619642,43.4290342 14.3019405,43.5357345 C16.6170032,43.6413727 17.4492572,43.6708569 22.4819555,43.6751104 L25.5181194,43.6751104 C30.5507577,43.6708569 31.383084,43.6413727 33.6980595,43.5357345 C36.0380358,43.4290342 37.3088177,43.0380537 38.154513,42.7093786 C39.2747712,42.2740031 40.0742615,41.7539343 40.9140503,40.9140503 C41.7539343,40.0742615 42.2740031,39.2747712 42.7093786,38.154513 C43.0380537,37.3088177 43.4290342,36.0380358 43.5357345,33.6980595 C43.6413727,31.3827354 43.6708569,30.5502996 43.6751104,25.51801 L43.6751104,22.4820629 C43.6708569,17.4497004 43.6413727,16.6172646 43.5357345,14.3019405 C43.4290342,11.9619642 43.0380537,10.6911823 42.7093786,9.84548697 C42.2740031,8.72522879 41.7539343,7.92573848 40.9140503,7.08594973 C40.0742615,6.24606572 39.2747712,5.72599689 38.154513,5.29062145 C37.3088177,4.96194633 36.0380358,4.57096584 33.6980595,4.46426551 C31.3827354,4.35862732 30.5502996,4.32914306 25.51801,4.32488961 Z M24.0000476,11.6756834 C30.8065759,11.6756834 36.3243166,17.1934241 36.3243166,24.0000476 C36.3243166,30.8065759 30.8065759,36.3243166 24.0000476,36.3243166 C17.1934241,36.3243166 11.6756834,30.8065759 11.6756834,24.0000476 C11.6756834,17.1934241 17.1934241,11.6756834 24.0000476,11.6756834 Z M24.0000476,16 C19.5817014,16 16,19.5817014 16,24.0000476 C16,28.4182986 19.5817014,32 24.0000476,32 C28.4182986,32 32,28.4182986 32,24.0000476 C32,19.5817014 28.4182986,16 24.0000476,16 Z M36.8112321,8.30871644 C38.4018291,8.30871644 39.6912836,9.59817085 39.6912836,11.1887679 C39.6912836,12.7793649 38.4018291,14.0687241 36.8112321,14.0687241 C35.2207303,14.0687241 33.9312759,12.7793649 33.9312759,11.1887679 C33.9312759,9.59817085 35.2207303,8.30871644 36.8112321,8.30871644 Z"></path>
        </g>
    </g>
</svg>