<?xml version="1.0" encoding="UTF-8"?>
<svg width="38px" height="34px" viewBox="0 0 38 34" version="1.1" xmlns="http://www.w3.org/2000/svg" xmlns:xlink="http://www.w3.org/1999/xlink">
    <title>Linkedin</title>
    <g id="Page-1" stroke="none" stroke-width="1" fill="none" fill-rule="evenodd">
        <g id="SOCIAL-ICONS-SKETCH" transform="translate(-675.000000, -360.000000)" fill="#4C4C4C">
            <g id="SINGLE-COLOR" transform="translate(158.000000, 358.000000)">
                <path d="M545.512,12.9 C550.622,12.9 554.637,16.177 554.637,23.234 L554.637,23.234 L554.637,35.901 L546.484,35.901 L546.484,24.112 C546.484,21.026 545.209,18.92 542.404,18.92 C540.259,18.92 539.066,20.341 538.511,21.711 C538.303,22.203 538.335,22.888 538.335,23.573 L538.335,23.573 L538.335,35.901 L530.258,35.901 C530.258,35.901 530.362,15.018 530.258,13.119 L530.258,13.119 L538.335,13.119 L538.335,16.695 C538.812,15.131 541.393,12.9 545.512,12.9 Z M525.867,13.119 L525.867,35.901 L518.677,35.901 L518.677,13.119 L525.867,13.119 Z M522.139,2.365 C524.792,2.365 526.423,4.066 526.475,6.314 C526.475,8.522 524.792,10.27 522.089,10.27 L522.089,10.27 L522.037,10.27 C519.435,10.27 517.747,8.528 517.747,6.32 C517.747,4.07 519.484,2.365 522.139,2.365 Z" id="Linkedin"></path>
            </g>
        </g>
    </g>
</svg>